<?xml version="1.0" encoding="UTF-8" standalone="no"?>
<svg
   xmlns:dc="http://purl.org/dc/elements/1.1/"
   xmlns:cc="http://creativecommons.org/ns#"
   xmlns:rdf="http://www.w3.org/1999/02/22-rdf-syntax-ns#"
   xmlns:svg="http://www.w3.org/2000/svg"
   xmlns="http://www.w3.org/2000/svg"
   xmlns:sodipodi="http://sodipodi.sourceforge.net/DTD/sodipodi-0.dtd"
   xmlns:inkscape="http://www.inkscape.org/namespaces/inkscape"
   version="1.1"
   width="595.27557"
   height="841.88977"
   id="svg59"
   viewBox="0 0 595.27557 841.88977"
   sodipodi:docname="it mono.svg"
   inkscape:export-filename="/home/matiasrh84/Documentos/itpng.png"
   inkscape:export-xdpi="96.661003"
   inkscape:export-ydpi="96.661003"
   inkscape:version="1.0.2 (e86c870879, 2021-01-15)">
  <metadata
     id="metadata65">
    <rdf:RDF>
      <cc:Work
         rdf:about="">
        <dc:format>image/svg+xml</dc:format>
        <dc:type
           rdf:resource="http://purl.org/dc/dcmitype/StillImage" />
        <dc:title></dc:title>
      </cc:Work>
    </rdf:RDF>
  </metadata>
  <defs
     id="defs63" />
  <sodipodi:namedview
     pagecolor="#ffffff"
     bordercolor="#666666"
     borderopacity="1"
     objecttolerance="10"
     gridtolerance="10"
     guidetolerance="10"
     inkscape:pageopacity="0"
     inkscape:pageshadow="2"
     inkscape:window-width="1366"
     inkscape:window-height="693"
     id="namedview61"
     showgrid="false"
     inkscape:zoom="0.59390198"
     inkscape:cx="242.91495"
     inkscape:cy="420.94489"
     inkscape:window-x="0"
     inkscape:window-y="0"
     inkscape:window-maximized="1"
     inkscape:current-layer="svg59" />
  <g
     id="Layer1000">
    <path
       d="m 232.4877,465.6086 h 6.2908 v 5.4402 l -6.2908,0.002 z m 0.0294,11.238 v 9e-4 l 6.2614,-0.003 v 5.4458 h -6.2908 v -5.4441 z m 31.8111,-11.238 h 5.9205 v 5.4291 h -5e-4 v -0.001 l -5.92,0.002 z m 5.9205,11.2247 v 5.4574 h -5.9205 v -5.4554 z"
       style="fill:#ffffff;fill-rule:evenodd"
       id="path28" />
    <path
       d="m 245.5948,457.0348 h 1.3488 l 2.6899,6.7065 -0.8002,1.2742 z m 11.3237,24.8697 3.1592,7.8768 -1.053,0.3485 -2.8544,-7.034 z"
       style="fill:#ffffff;fill-rule:evenodd"
       id="path30" />
    <path
       d="m 256.9864,490.8165 c -1.6547,0.3777 -4.2161,1.3076 -5.4465,2.1978 -1.773,-1.2827 -3.9612,-2.0908 -6.395,-2.272 -3.4762,-0.5511 -5.1921,-1.865 -5.3633,-3.848 v -11.5564 h 2.5955 l 9.3325,14.8612 3.0746,-4.896 z"
       style="fill:#ffffff;fill-rule:evenodd"
       id="path32" />
    <path
       d="m 248.8117,457.052 1.9757,4.8518 0.9222,-1.4686 9.3455,14.882 -5e-4,8e-4 h 0.8474 1.3762 v -18.2914 z"
       style="fill:#ffffff;fill-rule:evenodd"
       id="path34" />
    <path
       d="m 250.2559,470.3233 h 2.974 V 469.63 h -2.974 z"
       style="fill:#ffffff;fill-rule:evenodd"
       id="path36" />
    <path
       d="m 251.7244,468.1266 a 1.1293,0.9392 0 0 1 1.1292,0.9392 1.1293,0.9392 0 1 1 -1.1292,-0.9392 z"
       style="fill:#ffffff;fill-rule:evenodd"
       id="path38" />
    <path
       d="m 250.8446,474.7179 h 1.8559 v -4.0476 h -1.8559 z"
       style="fill:#ffffff;fill-rule:evenodd"
       id="path40" />
    <path
       d="m 252.6041,466.88 c 1.7871,0.5641 3.1209,2.7811 3.1209,5.4304 0,1.6307 -0.5054,3.0977 -1.3108,4.1162 0.3475,-0.8863 0.5503,-0.9889 0.5503,-3.1007 0,-1.4022 -0.6423,-3.2293 -1.5995,-4.2993 -0.1006,-0.8246 -0.8032,-1.4634 -1.655,-1.4634 -0.8535,0 -1.5571,0.6413 -1.6556,1.4684 -0.9536,1.0698 -1.5926,2.8919 -1.5926,4.2943 0,2.1159 0.2057,2.2297 0.5577,3.1198 -0.8143,-1.0193 -1.3261,-2.4944 -1.3261,-4.1353 0,-2.6509 1.3354,-4.8689 3.1241,-5.4314 -0.0268,-0.0807 -0.0412,-0.1665 -0.0412,-0.2555 0,-0.4789 0.4184,-0.8671 0.9347,-0.8671 0.5162,0 0.9347,0.3882 0.9347,0.8671 0,0.0893 -0.0146,0.1754 -0.0416,0.2565 z"
       style="fill:#ffffff;fill-rule:evenodd"
       id="path42" />
    <path
       d="m 247.3412,480.5519 8.7312,0.0114 -1.2008,1.9121 h -6.3225 z m 6.7179,3.2175 -2.3487,3.7401 -2.3487,-3.7401 z"
       style="fill:#ffffff;fill-rule:evenodd"
       id="path44" />
    <path
       d="m 247.7736,478.6961 3.11,-3.1099 0.1666,0.1665 -1.3652,1.3652 1.5782,1.5782 -0.1665,0.1666 -1.5783,-1.5782 -1.5782,1.5782 z"
       style="fill:#ffffff;fill-rule:evenodd"
       id="path46" />
    <path
       d="m 248.1634,477.9104 a 0.6262,0.6262 0 0 1 0.6262,0.6262 0.6262,0.6262 0 1 1 -0.6262,-0.6262 z"
       style="fill:#ffffff;fill-rule:evenodd"
       id="path48" />
    <path
       d="m 252.3381,478.6961 1.5174,-1.5174 -1.426,-1.426 0.1665,-0.1665 3.11,3.1099 -0.1665,0.1666 -1.5174,-1.5174 -1.5175,1.5174 z"
       style="fill:#ffffff;fill-rule:evenodd"
       id="path50" />
    <path
       d="m 250.2077,476.2766 h 3.0968 v -1.1852 h -3.0968 z"
       style="fill:#ffffff;fill-rule:evenodd"
       id="path52" />
    <path
       d="m 255.3353,477.9104 a 0.6262,0.6262 0 0 1 0.6262,0.6262 0.6262,0.6262 0 1 1 -0.6262,-0.6262 z"
       style="fill:#ffffff;fill-rule:evenodd"
       id="path54" />
    <path
       d="m 250.8745,479.4485 h 1.856 v -2.7337 h -1.856 z"
       style="fill:#ffffff;fill-rule:evenodd"
       id="path56" />
  </g>
  <g
     id="Layer1000-3"
     transform="matrix(12.072275,0,0,12.072275,-2733.2705,-5330.6844)"
     style="fill:#5599ff">
    <path
       d="m 232.4877,465.6086 h 6.2908 v 5.4402 l -6.2908,0.002 z m 0.0294,11.238 v 9e-4 l 6.2614,-0.003 v 5.4458 h -6.2908 v -5.4441 z m 31.8111,-11.238 h 5.9205 v 5.4291 h -5e-4 v -10e-4 l -5.92,0.002 z m 5.9205,11.2247 v 5.4574 h -5.9205 v -5.4554 z"
       style="fill:#5599ff;fill-rule:evenodd"
       id="path85" />
    <path
       d="m 245.5948,457.0348 h 1.3488 l 2.6899,6.7065 -0.8002,1.2742 z m 11.3237,24.8697 3.1592,7.8768 -1.053,0.3485 -2.8544,-7.034 z"
       style="fill:#5599ff;fill-rule:evenodd"
       id="path87" />
    <path
       d="m 256.9864,490.8165 c -1.6547,0.3777 -4.2161,1.3076 -5.4465,2.1978 -1.773,-1.2827 -3.9612,-2.0908 -6.395,-2.272 -3.4762,-0.5511 -5.1921,-1.865 -5.3633,-3.848 v -11.5564 h 2.5955 l 9.3325,14.8612 3.0746,-4.896 z"
       style="fill:#5599ff;fill-rule:evenodd"
       id="path89" />
    <path
       d="m 248.8117,457.052 1.9757,4.8518 0.9222,-1.4686 9.3455,14.882 -5e-4,8e-4 h 0.8474 1.3762 v -18.2914 z"
       style="fill:#5599ff;fill-rule:evenodd"
       id="path91" />
    <path
       d="m 250.2559,470.3233 h 2.974 V 469.63 h -2.974 z"
       style="fill:#5599ff;fill-rule:evenodd"
       id="path93" />
    <path
       d="m 251.7244,468.1266 a 1.1293,0.9392 0 0 1 1.1292,0.9392 1.1293,0.9392 0 1 1 -1.1292,-0.9392 z"
       style="fill:#5599ff;fill-rule:evenodd"
       id="path95" />
    <path
       d="m 250.8446,474.7179 h 1.8559 v -4.0476 h -1.8559 z"
       style="fill:#5599ff;fill-rule:evenodd"
       id="path97" />
    <path
       d="m 252.6041,466.88 c 1.7871,0.5641 3.1209,2.7811 3.1209,5.4304 0,1.6307 -0.5054,3.0977 -1.3108,4.1162 0.3475,-0.8863 0.5503,-0.9889 0.5503,-3.1007 0,-1.4022 -0.6423,-3.2293 -1.5995,-4.2993 -0.1006,-0.8246 -0.8032,-1.4634 -1.655,-1.4634 -0.8535,0 -1.5571,0.6413 -1.6556,1.4684 -0.9536,1.0698 -1.5926,2.8919 -1.5926,4.2943 0,2.1159 0.2057,2.2297 0.5577,3.1198 -0.8143,-1.0193 -1.3261,-2.4944 -1.3261,-4.1353 0,-2.6509 1.3354,-4.8689 3.1241,-5.4314 -0.0268,-0.0807 -0.0412,-0.1665 -0.0412,-0.2555 0,-0.4789 0.4184,-0.8671 0.9347,-0.8671 0.5162,0 0.9347,0.3882 0.9347,0.8671 0,0.0893 -0.0146,0.1754 -0.0416,0.2565 z"
       style="fill:#5599ff;fill-rule:evenodd"
       id="path99" />
    <path
       d="m 247.3412,480.5519 8.7312,0.0114 -1.2008,1.9121 h -6.3225 z m 6.7179,3.2175 -2.3487,3.7401 -2.3487,-3.7401 z"
       style="fill:#5599ff;fill-rule:evenodd"
       id="path101" />
    <path
       d="m 247.7736,478.6961 3.11,-3.1099 0.1666,0.1665 -1.3652,1.3652 1.5782,1.5782 -0.1665,0.1666 -1.5783,-1.5782 -1.5782,1.5782 z"
       style="fill:#5599ff;fill-rule:evenodd"
       id="path103" />
    <path
       d="m 248.1634,477.9104 a 0.6262,0.6262 0 0 1 0.6262,0.6262 0.6262,0.6262 0 1 1 -0.6262,-0.6262 z"
       style="fill:#5599ff;fill-rule:evenodd"
       id="path105" />
    <path
       d="m 252.3381,478.6961 1.5174,-1.5174 -1.426,-1.426 0.1665,-0.1665 3.11,3.1099 -0.1665,0.1666 -1.5174,-1.5174 -1.5175,1.5174 z"
       style="fill:#5599ff;fill-rule:evenodd"
       id="path107" />
    <path
       d="m 250.2077,476.2766 h 3.0968 v -1.1852 h -3.0968 z"
       style="fill:#5599ff;fill-rule:evenodd"
       id="path109" />
    <path
       d="m 255.3353,477.9104 a 0.6262,0.6262 0 0 1 0.6262,0.6262 0.6262,0.6262 0 1 1 -0.6262,-0.6262 z"
       style="fill:#5599ff;fill-rule:evenodd"
       id="path111" />
    <path
       d="m 250.8745,479.4485 h 1.856 v -2.7337 h -1.856 z"
       style="fill:#5599ff;fill-rule:evenodd"
       id="path113" />
  </g>
</svg>
