<?xml version="1.0" encoding="UTF-8" standalone="no"?>
<!-- Created with Inkscape (http://www.inkscape.org/) -->

<svg
   width="210mm"
   height="297mm"
   viewBox="0 0 210 297"
   version="1.1"
   id="svg187"
   inkscape:version="1.1 (ce6663b3b7, 2021-05-25)"
   sodipodi:docname="it.svg"
   xmlns:inkscape="http://www.inkscape.org/namespaces/inkscape"
   xmlns:sodipodi="http://sodipodi.sourceforge.net/DTD/sodipodi-0.dtd"
   xmlns="http://www.w3.org/2000/svg"
   xmlns:svg="http://www.w3.org/2000/svg">
  <sodipodi:namedview
     id="namedview189"
     pagecolor="#ffffff"
     bordercolor="#666666"
     borderopacity="1.0"
     inkscape:pageshadow="2"
     inkscape:pageopacity="0.0"
     inkscape:pagecheckerboard="0"
     inkscape:document-units="mm"
     showgrid="false"
     inkscape:zoom="0.33323201"
     inkscape:cx="58.517788"
     inkscape:cy="564.17149"
     inkscape:window-width="1366"
     inkscape:window-height="695"
     inkscape:window-x="0"
     inkscape:window-y="0"
     inkscape:window-maximized="1"
     inkscape:current-layer="layer1" />
  <defs
     id="defs184" />
  <g
     inkscape:label="Capa 1"
     inkscape:groupmode="layer"
     id="layer1">
    <path
       d="M 2.3436733,91.755319 V 182.40576 H 207.53747 V 91.755319 Z"
       style="fill:#009ee0;fill-rule:evenodd;stroke:none;stroke-width:3.3112"
       id="path6"
       inkscape:export-filename="/home/matiasrh84/Escritorio/it.png"
       inkscape:export-xdpi="96"
       inkscape:export-ydpi="96" />
    <path
       d="m 2.856168,121.33416 204.285332,-0.0837 v 31.49372 L 2.856168,152.8317 Z"
       style="fill:#ffffff;fill-rule:evenodd;stroke:#ffffff;stroke-width:0.713925;stroke-linecap:butt;stroke-linejoin:miter;stroke-dasharray:none"
       id="path8"
       inkscape:export-filename="/home/matiasrh84/Escritorio/it.png"
       inkscape:export-xdpi="96"
       inkscape:export-ydpi="96" />
    <path
       d="M 105.87417,246.62562 C 95.634587,239.21751 81.558325,234.6345 67.501921,233.58813 47.426072,230.40516 37.516633,222.81747 36.5279,211.3651 V 39.84247 h 69.41878 69.41912 V 211.3651 c -0.98904,11.45237 -10.8985,19.04006 -30.97435,22.22303 -14.05639,1.04626 -28.2777,5.62938 -38.51728,13.03749 z"
       style="fill:#ffffff;fill-rule:evenodd;stroke-width:3.3112"
       id="path10"
       inkscape:export-filename="/home/matiasrh84/Escritorio/it.png"
       inkscape:export-xdpi="96"
       inkscape:export-ydpi="96" />
    <path
       d="m 105.29736,247.4217 c -4.97211,-3.5974 -10.870692,-6.52007 -17.237811,-8.68298 -6.549244,-2.22512 -13.591182,-3.64591 -20.627498,-4.16943 l -0.08385,-0.0111 c -10.19255,-1.61668 -17.830181,-4.36956 -23.06751,-8.18844 -5.356545,-3.90509 -8.214448,-8.90334 -8.733635,-14.92017 l -0.0039,-0.0878 V 39.839255 38.854468 h 0.98479 69.419444 69.41877 0.9848 v 0.984787 171.522975 l -0.004,0.0876 c -0.51987,6.01683 -3.37677,11.0151 -8.73332,14.92019 -5.237,3.81885 -12.87528,6.57173 -23.06782,8.18801 l -0.0812,0.0112 c -7.05453,0.52436 -14.14881,1.95031 -20.74505,4.18293 -6.38734,2.16191 -12.30677,5.08034 -17.26794,8.66945 l -0.5772,0.41675 z M 88.690658,236.87677 c 6.306525,2.14276 12.174312,5.01591 17.183842,8.54131 5.0019,-3.51889 10.88958,-6.38625 17.21396,-8.52731 6.75057,-2.28479 14.0041,-3.74404 21.21094,-4.28178 9.85082,-1.56785 17.18749,-4.19794 22.15959,-7.82396 4.85057,-3.53705 7.44226,-8.04584 7.92172,-13.46196 V 40.827216 H 105.94668 37.511989 V 211.32307 c 0.479066,5.41574 3.071481,9.92491 7.922392,13.46196 4.973427,3.6264 12.310077,6.25688 22.162237,7.82432 7.193933,0.5369 14.394481,1.99176 21.09404,4.26742 z"
       style="fill:#102a83;fill-rule:evenodd;stroke-width:3.3112"
       id="path12"
       inkscape:export-filename="/home/matiasrh84/Escritorio/it.png"
       inkscape:export-xdpi="96"
       inkscape:export-ydpi="96" />
    <path
       d="m 73.56739,45.165535 h 7.329678 l 71.371092,177.944435 -5.72212,1.89356 z"
       style="fill:#102a83;fill-rule:evenodd;stroke:#102a83;stroke-width:1.8771;stroke-linecap:butt;stroke-linejoin:miter;stroke-dasharray:none"
       id="path14"
       inkscape:export-filename="/home/matiasrh84/Escritorio/it.png"
       inkscape:export-xdpi="96"
       inkscape:export-ydpi="96" />
    <path
       d="m 135.46939,228.73494 c -8.99123,2.05268 -22.91023,7.10587 -29.59622,11.94318 C 96.238885,233.70765 84.348675,229.31638 71.122388,228.33196 52.232955,225.33691 42.908931,218.19741 41.978482,207.42184 l 3.26e-4,-62.79743 h 59.895422 z"
       style="fill:#e30016;fill-rule:evenodd;stroke:#e30016;stroke-width:1.8771;stroke-linecap:butt;stroke-linejoin:miter;stroke-dasharray:none"
       id="path16"
       inkscape:export-filename="/home/matiasrh84/Escritorio/it.png"
       inkscape:export-xdpi="96"
       inkscape:export-ydpi="96" />
    <path
       d="m 91.048232,45.25891 40.419598,99.2576 h 30.71341 7.47836 V 45.120495 Z"
       style="fill:#102a83;fill-rule:evenodd;stroke:#102a83;stroke-width:1.8771;stroke-linecap:butt;stroke-linejoin:miter;stroke-dasharray:none"
       id="path18"
       inkscape:export-filename="/home/matiasrh84/Escritorio/it.png"
       inkscape:export-xdpi="96"
       inkscape:export-ydpi="96" />
    <path
       d="m 56.012037,144.51189 50.783633,-80.868251 50.78365,80.868251 -50.78365,80.86848 z"
       style="fill:#ffffff;fill-rule:evenodd;stroke-width:3.3112"
       id="path20"
       inkscape:export-filename="/home/matiasrh84/Escritorio/it.png"
       inkscape:export-xdpi="96"
       inkscape:export-ydpi="96" />
    <path
       d="m 55.181253,143.98902 50.783977,-80.86922 0.83111,-1.323164 0.83047,1.323164 50.78332,80.86922 0.32876,0.52314 -0.32876,0.52308 -50.78332,80.86786 -0.83047,1.32284 -0.83111,-1.32284 -50.783977,-80.86786 -0.328137,-0.52308 z m 51.614757,-78.500087 -49.624729,79.023227 49.624729,79.02227 49.62406,-79.02227 z"
       style="fill:#102a83;fill-rule:evenodd;stroke-width:3.3112"
       id="path22"
       inkscape:export-filename="/home/matiasrh84/Escritorio/it.png"
       inkscape:export-xdpi="96"
       inkscape:export-ydpi="96" />
    <path
       d="m 98.895792,117.37498 h 16.161028 v -3.76716 H 98.895792 Z"
       style="fill:#e30016;fill-rule:evenodd;stroke:#e30016;stroke-width:0.193042;stroke-linecap:butt;stroke-linejoin:miter;stroke-miterlimit:4;stroke-dasharray:none"
       id="path24"
       inkscape:export-filename="/home/matiasrh84/Escritorio/it.png"
       inkscape:export-xdpi="96"
       inkscape:export-ydpi="96" />
    <path
       d="m 106.87581,105.43817 a 6.1363274,5.1038684 0 0 1 6.13666,5.10349 6.1363274,5.1038684 0 1 1 -6.13666,-5.10349 z"
       style="fill:#e30016;fill-rule:evenodd;stroke:#e30016;stroke-width:0.193042;stroke-linecap:butt;stroke-linejoin:miter;stroke-miterlimit:4;stroke-dasharray:none"
       id="path26"
       inkscape:export-filename="/home/matiasrh84/Escritorio/it.png"
       inkscape:export-xdpi="96"
       inkscape:export-ydpi="96" />
    <path
       d="m 102.09476,141.2553 h 10.08527 v -21.99461 h -10.08527 z"
       style="fill:#e30016;fill-rule:evenodd;stroke:#e30016;stroke-width:0.193042;stroke-linecap:butt;stroke-linejoin:miter;stroke-miterlimit:4;stroke-dasharray:none"
       id="path28"
       inkscape:export-filename="/home/matiasrh84/Escritorio/it.png"
       inkscape:export-xdpi="96"
       inkscape:export-ydpi="96" />
    <path
       d="m 111.65653,98.664092 c 9.7111,3.065198 16.959,15.112618 16.959,29.508698 0,8.86144 -2.7463,16.83305 -7.12306,22.36768 1.88805,-4.81604 2.99002,-5.37369 2.99002,-16.84956 0,-7.61911 -3.49001,-17.54804 -8.69128,-23.36183 -0.547,-4.48102 -4.36449,-7.95214 -8.99354,-7.95214 -4.63801,0 -8.461462,3.48469 -8.996229,7.97897 -5.182039,5.81313 -8.654494,15.7149 -8.654494,23.335 0,11.49802 1.117571,12.11665 3.030408,16.9532 -4.42443,-5.53866 -7.205845,-13.55433 -7.205845,-22.47132 0,-14.40469 7.256842,-26.45742 16.97656,-29.513663 -0.14574,-0.439022 -0.22452,-0.905327 -0.22452,-1.388376 0,-2.602597 2.27414,-4.712144 5.07941,-4.712144 2.80524,0 5.07939,2.109547 5.07939,4.712144 0,0.485093 -0.0788,0.952998 -0.22589,1.393341 z"
       style="fill:#102a83;fill-rule:evenodd;stroke:#102a83;stroke-width:0.193042;stroke-linecap:butt;stroke-linejoin:miter;stroke-miterlimit:4;stroke-dasharray:none"
       id="path30"
       inkscape:export-filename="/home/matiasrh84/Escritorio/it.png"
       inkscape:export-xdpi="96"
       inkscape:export-ydpi="96" />
    <path
       d="m 83.057636,172.95688 47.445624,0.0624 -6.52506,10.39048 H 89.621444 Z m 36.505064,17.4841 -12.76271,20.32379 -12.762726,-20.32379 z"
       style="fill:#e30016;fill-rule:evenodd;stroke:#e30016;stroke-width:1.8771;stroke-linecap:butt;stroke-linejoin:miter;stroke-dasharray:none"
       id="path32"
       inkscape:export-filename="/home/matiasrh84/Escritorio/it.png"
       inkscape:export-xdpi="96"
       inkscape:export-ydpi="96" />
    <path
       d="m 85.407263,162.87303 16.899747,-16.89965 0.90531,0.9048 -7.418435,7.41837 8.576015,8.57599 -0.90492,0.90476 -8.576363,-8.57633 -8.576357,8.57633 z"
       style="fill:#102a83;fill-rule:evenodd;stroke:#102a83;stroke-width:0.193042;stroke-linecap:butt;stroke-linejoin:miter;stroke-miterlimit:4;stroke-dasharray:none"
       id="path34"
       inkscape:export-filename="/home/matiasrh84/Escritorio/it.png"
       inkscape:export-xdpi="96"
       inkscape:export-ydpi="96" />
    <path
       d="m 87.525443,158.60362 a 3.4025957,3.4025791 0 0 1 3.402599,3.40224 3.4025957,3.4025791 0 1 1 -3.402599,-3.40224 z"
       style="fill:#e30016;fill-rule:evenodd;stroke:#e30016;stroke-width:0.193042;stroke-linecap:butt;stroke-linejoin:miter;stroke-miterlimit:4;stroke-dasharray:none"
       id="path36"
       inkscape:export-filename="/home/matiasrh84/Escritorio/it.png"
       inkscape:export-xdpi="96"
       inkscape:export-ydpi="96" />
    <path
       d="m 110.21086,162.87303 8.24558,-8.24548 -7.74889,-7.74888 0.90494,-0.90481 16.89976,16.89966 -0.90497,0.9048 -8.24589,-8.2456 -8.24555,8.2456 z"
       style="fill:#102a83;fill-rule:evenodd;stroke:#102a83;stroke-width:0.193042;stroke-linecap:butt;stroke-linejoin:miter;stroke-miterlimit:4;stroke-dasharray:none"
       id="path38"
       inkscape:export-filename="/home/matiasrh84/Escritorio/it.png"
       inkscape:export-xdpi="96"
       inkscape:export-ydpi="96" />
    <path
       d="M 98.633869,149.72527 H 115.46244 V 143.2847 H 98.633869 Z"
       style="fill:#e30016;fill-rule:evenodd;stroke:#e30016;stroke-width:0.193042;stroke-linecap:butt;stroke-linejoin:miter;stroke-miterlimit:4;stroke-dasharray:none"
       id="path40"
       inkscape:export-filename="/home/matiasrh84/Escritorio/it.png"
       inkscape:export-xdpi="96"
       inkscape:export-ydpi="96" />
    <path
       d="m 126.49768,158.60362 a 3.4025957,3.4025791 0 0 1 3.40261,3.40224 3.4025957,3.4025791 0 1 1 -3.40261,-3.40224 z"
       style="fill:#e30016;fill-rule:evenodd;stroke:#e30016;stroke-width:0.193042;stroke-linecap:butt;stroke-linejoin:miter;stroke-miterlimit:4;stroke-dasharray:none"
       id="path42"
       inkscape:export-filename="/home/matiasrh84/Escritorio/it.png"
       inkscape:export-xdpi="96"
       inkscape:export-ydpi="96" />
    <path
       d="m 102.258,166.96135 h 10.08494 V 152.10636 H 102.258 Z"
       style="fill:#e30016;fill-rule:evenodd;stroke:#e30016;stroke-width:0.193042;stroke-linecap:butt;stroke-linejoin:miter;stroke-miterlimit:4;stroke-dasharray:none"
       id="path44"
       inkscape:export-filename="/home/matiasrh84/Escritorio/it.png"
       inkscape:export-xdpi="96"
       inkscape:export-ydpi="96" />
  </g>
</svg>
